{
  "source": "C:\\Users\\Peter\\Desktop\\stuff\\MIUN\\quantitative_research\\video_compression\\videos\\BVI-HD\\BVI-HD_CDVL_videos\\ORIG\\Grass_1920x1080_60fps.mp4",
  "output": "C:\\Users\\Peter\\Desktop\\stuff\\MIUN\\quantitative_research\\video_compression\\compressed_videos\\BVI-HD\\h264\\4\\Grass_1920x1080_60fps_h264.mp4",
  "codec": "h264",
  "ok": "Input #0, mov,mp4,m4a,3gp,3g2,mj2, from 'C:\\Users\\Peter\\Desktop\\stuff\\MIUN\\quantitative_research\\video_compression\\videos\\BVI-HD\\BVI-HD_CDVL_videos\\ORIG\\Grass_1920x1080_60fps.mp4':\n  Metadata:\n    major_brand     : isom\n    minor_version   : 512\n    compatible_brands: isomiso2avc1mp41\n    encoder         : Lavf54.28.101\n  Duration: 00:00:05.00, start: 0.000000, bitrate: 655968 kb/s\n  Stream #0:0[0x1](und): Video: h264 (High 4:4:4 Predictive) (avc1 / 0x31637661), yuv420p(progressive), 1920x1080, 655963 kb/s, 60 fps, 60 tbr, 60 tbn (default)\n    Metadata:\n      handler_name    : VideoHandler\n      vendor_id       : [0][0][0][0]\n[out#0/mp4 @ 000001c022f47d40] Codec AVOption b:a (set bitrate (in bits/s)) has not been used for any stream. The most likely reason is either wrong type (e.g. a video option with no video streams) or that it is a private option of some decoder which was not actually used for any stream.\nStream mapping:\n  Stream #0:0 -> #0:0 (h264 (native) -> h264 (libx264))\nPress [q] to stop, [?] for help\n[libx264 @ 000001c025240ac0] using cpu capabilities: MMX2 SSE2Fast SSSE3 SSE4.2 AVX FMA3 BMI2 AVX2\n[libx264 @ 000001c025240ac0] profile High, level 5.0, 4:2:0, 8-bit\n[libx264 @ 000001c025240ac0] 264 - core 165 r3222 b35605a - H.264/MPEG-4 AVC codec - Copyleft 2003-2025 - http://www.videolan.org/x264.html - options: cabac=1 ref=5 deblock=1:0:0 analyse=0x3:0x113 me=hex subme=8 psy=1 psy_rd=1.00:0.00 mixed_ref=1 me_range=16 chroma_me=1 trellis=2 8x8dct=1 cqm=0 deadzone=21,11 fast_pskip=1 chroma_qp_offset=-2 threads=18 lookahead_threads=3 sliced_threads=0 nr=0 decimate=1 interlaced=0 bluray_compat=0 constrained_intra=0 bframes=3 b_pyramid=2 b_adapt=1 b_bias=0 direct=3 weightb=1 open_gop=0 weightp=2 keyint=250 keyint_min=25 scenecut=40 intra_refresh=0 rc_lookahead=50 rc=cbr mbtree=1 bitrate=4000 ratetol=1.0 qcomp=0.60 qpmin=0 qpmax=69 qpstep=4 vbv_maxrate=4000 vbv_bufsize=4000 nal_hrd=none filler=0 ip_ratio=1.40 aq=1:1.00\nOutput #0, mp4, to 'C:\\Users\\Peter\\Desktop\\stuff\\MIUN\\quantitative_research\\video_compression\\compressed_videos\\BVI-HD\\h264\\4\\Grass_1920x1080_60fps_h264.mp4':\n  Metadata:\n    major_brand     : isom\n    minor_version   : 512\n    compatible_brands: isomiso2avc1mp41\n    encoder         : Lavf62.3.100\n  Stream #0:0(und): Video: h264 (avc1 / 0x31637661), yuv420p(tv, progressive), 1920x1080, q=2-31, 4000 kb/s, 60 fps, 15360 tbn (default)\n    Metadata:\n      encoder         : Lavc62.11.100 libx264\n      handler_name    : VideoHandler\n      vendor_id       : [0][0][0][0]\n    Side data:\n      cpb: bitrate max/min/avg: 4000000/0/4000000 buffer size: 4000000 vbv_delay: N/A\nframe=    0 fps=0.0 q=0.0 size=       0KiB time=N/A bitrate=N/A speed=N/A elapsed=0:00:01.07    \nframe=    0 fps=0.0 q=0.0 size=       0KiB time=N/A bitrate=N/A speed=N/A elapsed=0:00:01.62    \nframe=    0 fps=0.0 q=0.0 size=       0KiB time=N/A bitrate=N/A speed=N/A elapsed=0:00:02.19    \nframe=    0 fps=0.0 q=0.0 size=       0KiB time=N/A bitrate=N/A speed=N/A elapsed=0:00:02.73    \nframe=   21 fps=6.4 q=39.0 size=       0KiB time=00:00:00.31 bitrate=   1.2kbits/s speed=0.0961x elapsed=0:00:03.29    \nframe=   47 fps= 12 q=39.0 size=     256KiB time=00:00:00.65 bitrate=3227.0kbits/s speed=0.166x elapsed=0:00:03.92    \nframe=   70 fps= 15 q=39.0 size=     256KiB time=00:00:01.11 bitrate=1878.4kbits/s speed=0.244x elapsed=0:00:04.58    \nframe=   93 fps= 18 q=39.0 size=     512KiB time=00:00:01.45 bitrate=2892.9kbits/s speed=0.278x elapsed=0:00:05.21    \nframe=  109 fps= 18 q=39.0 size=     512KiB time=00:00:01.78 bitrate=2352.2kbits/s speed=0.302x elapsed=0:00:05.89    \nframe=  129 fps= 20 q=39.0 size=     768KiB time=00:00:02.11 bitrate=2972.5kbits/s speed=0.326x elapsed=0:00:06.50    \nframe=  147 fps= 21 q=39.0 size=     768KiB time=00:00:02.38 bitrate=2639.9kbits/s speed=0.335x elapsed=0:00:07.10    \nframe=  173 fps= 22 q=39.0 size=     768KiB time=00:00:02.83 bitrate=2220.6kbits/s speed=0.368x elapsed=0:00:07.70    \nframe=  193 fps= 23 q=39.0 size=    1024KiB time=00:00:03.18 bitrate=2635.3kbits/s speed=0.385x elapsed=0:00:08.26    \nframe=  217 fps= 24 q=39.0 size=    1024KiB time=00:00:03.51 bitrate=2385.5kbits/s speed=0.395x elapsed=0:00:08.90    \nframe=  232 fps= 24 q=39.0 size=    1280KiB time=00:00:03.83 bitrate=2735.5kbits/s speed=0.404x elapsed=0:00:09.48    \nframe=  250 fps= 25 q=39.0 size=    1280KiB time=00:00:04.13 bitrate=2537.0kbits/s speed=0.411x elapsed=0:00:10.06    \nframe=  283 fps= 27 q=35.0 size=    1792KiB time=00:00:04.61 bitrate=3179.9kbits/s speed=0.436x elapsed=0:00:10.57    \n[mp4 @ 000001c022eb9ac0] Starting second pass: moving the moov atom to the beginning of the file\n[out#0/mp4 @ 000001c022f47d40] video:1863KiB audio:0KiB subtitle:0KiB other streams:0KiB global headers:0KiB muxing overhead: 0.234330%\nframe=  300 fps= 28 q=-1.0 Lsize=    1868KiB time=00:00:04.96 bitrate=3080.5kbits/s speed=0.462x elapsed=0:00:10.74    \n[libx264 @ 000001c025240ac0] frame I:2     Avg QP:35.16  size:198742\n[libx264 @ 000001c025240ac0] frame P:76    Avg QP:37.58  size: 16310\n[libx264 @ 000001c025240ac0] frame B:222   Avg QP:42.82  size:  1217\n[libx264 @ 000001c025240ac0] consecutive B-frames:  1.3%  0.0%  0.0% 98.7%\n[libx264 @ 000001c025240ac0] mb I  I16..4:  0.2% 93.3%  6.5%\n[libx264 @ 000001c025240ac0] mb P  I16..4:  0.0%  0.1%  0.0%  P16..4: 27.0%  9.8%  8.3%  0.0%  0.0%    skip:54.9%\n[libx264 @ 000001c025240ac0] mb B  I16..4:  0.0%  0.0%  0.0%  B16..8: 17.3%  0.2%  0.0%  direct: 0.0%  skip:82.5%  L0:11.8% L1:88.0% BI: 0.2%\n[libx264 @ 000001c025240ac0] 8x8 transform intra:93.3% inter:68.1%\n[libx264 @ 000001c025240ac0] direct mvs  spatial:95.5% temporal:4.5%\n[libx264 @ 000001c025240ac0] coded y,uvDC,uvAC intra: 96.9% 98.7% 89.6% inter: 3.2% 4.6% 0.6%\n[libx264 @ 000001c025240ac0] i16 v,h,dc,p: 64%  0%  6% 31%\n[libx264 @ 000001c025240ac0] i8 v,h,dc,ddl,ddr,vr,hd,vl,hu:  8%  5%  4% 11% 15% 15% 13% 14% 14%\n[libx264 @ 000001c025240ac0] i4 v,h,dc,ddl,ddr,vr,hd,vl,hu:  6%  3%  1% 11% 18% 18% 16% 13% 13%\n[libx264 @ 000001c025240ac0] i8c dc,h,v,p: 63% 11% 12% 14%\n[libx264 @ 000001c025240ac0] Weighted P-Frames: Y:0.0% UV:0.0%\n[libx264 @ 000001c025240ac0] ref P L0: 72.8%  9.1% 11.3%  2.1%  4.8%\n[libx264 @ 000001c025240ac0] ref B L0: 89.0%  7.2%  2.8%  1.0%\n[libx264 @ 000001c025240ac0] ref B L1: 93.1%  6.9%\n[libx264 @ 000001c025240ac0] kb/s:3051.57\n",
  "seconds": 11.41564655303955,
  "probe_out": {}
}